<?xml version="1.0" encoding="UTF-8" standalone="no"?><!-- Generator: Gravit.io --><svg xmlns="http://www.w3.org/2000/svg" xmlns:xlink="http://www.w3.org/1999/xlink" style="isolation:isolate" viewBox="-5.233 101.181 792 212.335" width="792pt" height="212.335pt"><g><path d=" M 206.499 196.546 L 206.499 196.5 C 205.29 184.63 202.074 173.051 196.987 162.258 C 196.856 161.957 196.732 161.624 196.569 161.33 C 196.535 161.253 196.497 161.178 196.453 161.106 C 177.595 122.113 136.934 98.492 93.719 101.426 C 50.505 104.359 13.409 133.257 -0.008 174.44 C -13.425 215.624 -0.47 260.828 32.723 288.654 L 32.723 207.079 C 32.744 170.911 61.376 141.243 97.52 139.938 C 133.664 138.633 164.362 166.159 166.991 202.23 L 117.113 202.23 C 112.882 194.906 104.259 191.336 96.089 193.526 C 87.919 195.716 82.238 203.121 82.238 211.579 C 82.238 220.038 87.919 227.442 96.089 229.632 C 104.259 231.823 112.882 228.253 117.113 220.928 L 165.769 220.928 C 161.734 240.013 149.613 256.407 132.55 265.861 C 115.486 275.314 95.16 276.895 76.84 270.195 L 76.84 310.685 L 77.861 310.932 C 79.082 311.188 80.32 311.451 81.549 311.706 C 82.214 311.829 82.887 311.953 83.552 312.054 C 84.789 312.263 86.042 312.448 87.295 312.611 L 89.298 312.858 C 90.635 313.005 91.981 313.105 93.326 313.206 L 95.105 313.345 C 97.061 313.453 99.01 313.515 100.982 313.515 C 159.579 313.464 207.049 265.938 207.032 207.342 C 207.032 203.692 206.816 200.104 206.499 196.546 Z " fill="rgb(54,73,153)"/><path d=" M 235.76 266.878 L 235.76 147.643 L 255.758 147.643 L 255.758 266.878 L 235.76 266.878 Z " fill="rgb(54,73,153)"/><path d=" M 337.07 254.783 L 336.729 254.783 C 334.347 258.852 330.929 262.216 326.824 264.535 C 322.396 266.949 317.413 268.162 312.371 268.053 C 307.625 268.063 302.914 267.242 298.451 265.625 C 293.99 264.009 289.924 261.46 286.527 258.147 C 282.845 254.461 280.007 250.021 278.206 245.133 C 276.126 239.805 275.113 233.456 275.113 226.063 L 275.113 183.895 L 295.095 183.895 L 295.095 226.063 Q 295.095 237.987 300.81 243.687 Q 306.525 249.386 316.098 249.409 Q 325.377 249.409 331.224 243.532 Q 337.07 237.655 337.101 226.063 L 337.101 183.895 L 357.083 183.895 L 357.083 264.024 Q 357.083 274.951 353.897 282.583 C 351.975 287.387 348.956 291.675 345.081 295.103 C 341.24 298.391 336.743 300.824 331.889 302.241 C 326.653 303.778 321.222 304.541 315.765 304.506 C 311.148 304.533 306.545 303.969 302.07 302.828 C 297.878 301.778 293.892 300.032 290.278 297.663 C 286.724 295.289 283.649 292.267 281.214 288.754 C 278.569 284.901 276.713 280.562 275.755 275.987 L 295.745 275.987 Q 300.601 287.262 315.734 287.254 Q 325.981 287.254 331.525 281.957 Q 337.07 276.66 337.07 264.573 L 337.07 254.783 Z " fill="rgb(54,73,153)"/><path d=" M 429.804 266.878 L 429.804 219.506 Q 429.804 209.453 425.009 204.898 C 421.768 201.849 417.448 200.213 413 200.351 Q 405.615 200.351 400.898 204.813 Q 396.181 209.275 396.204 219.506 L 396.204 266.878 L 376.206 266.878 L 376.206 219.506 C 376.084 213.76 376.995 208.04 378.897 202.617 C 380.464 198.221 382.956 194.212 386.205 190.863 C 389.308 187.771 393.07 185.421 397.209 183.988 C 401.63 182.446 406.284 181.674 410.966 181.707 C 416.765 181.594 422.505 182.892 427.692 185.488 C 432.55 187.992 436.653 191.745 439.578 196.361 L 439.911 196.361 C 442.736 191.749 446.776 188.004 451.587 185.535 C 456.825 182.926 462.618 181.628 468.468 181.753 C 473.145 181.708 477.796 182.464 482.218 183.988 C 486.357 185.424 490.117 187.779 493.214 190.878 C 496.463 194.229 498.957 198.237 500.529 202.632 Q 503.22 209.785 503.213 219.521 L 503.213 266.893 L 483.223 266.893 L 483.223 219.506 Q 483.223 209.259 478.521 204.813 Q 473.82 200.366 466.419 200.351 C 461.609 200.351 457.627 201.898 454.503 204.898 C 451.379 207.898 449.793 212.786 449.793 219.506 L 449.793 266.878 L 429.804 266.878 Z " fill="rgb(54,73,153)"/><path d=" M 519.676 226.063 C 519.589 219.834 520.7 213.647 522.947 207.836 C 524.999 202.631 528.085 197.896 532.018 193.917 C 535.997 189.984 540.75 186.921 545.976 184.924 C 551.742 182.74 557.867 181.659 564.032 181.738 C 570.177 181.677 576.277 182.79 582.004 185.016 C 587.285 187.06 592.11 190.127 596.202 194.041 C 600.225 197.967 603.386 202.689 605.481 207.906 C 607.697 213.464 608.808 219.4 608.752 225.383 Q 608.752 236.464 605.149 244.614 C 602.941 249.737 599.727 254.365 595.699 258.225 C 591.922 261.814 587.447 264.588 582.553 266.375 C 577.808 268.133 572.789 269.038 567.729 269.051 C 561.996 269.173 556.319 267.907 551.18 265.362 C 546.611 263.089 542.748 259.613 540.006 255.309 L 539.674 255.309 L 539.674 302.302 L 519.676 302.302 L 519.676 226.063 Z  M 564.032 200.351 Q 552.928 200.351 546.301 207.311 Q 539.674 214.27 539.674 225.375 Q 539.674 236.456 546.301 243.424 Q 552.928 250.391 564.032 250.383 Q 575.106 250.383 581.818 243.424 Q 588.531 236.464 588.531 225.375 Q 588.531 214.286 581.818 207.311 Q 575.106 200.335 564.032 200.351 Z " fill="rgb(54,73,153)"/><path d=" M 683.808 183.895 L 703.806 183.895 L 703.806 227.068 C 703.925 233.271 702.927 239.445 700.86 245.295 C 699.084 250.219 696.246 254.691 692.547 258.395 C 688.875 261.977 684.457 264.705 679.609 266.383 C 674.205 268.228 668.524 269.13 662.813 269.051 C 657.12 269.121 651.455 268.245 646.048 266.46 C 641.196 264.841 636.775 262.141 633.119 258.565 C 629.403 254.841 626.561 250.337 624.798 245.38 C 622.732 239.501 621.734 233.299 621.852 227.068 L 621.852 183.895 L 641.849 183.895 L 641.849 227.068 Q 641.849 239 647.564 244.707 Q 653.279 250.414 662.852 250.414 Q 672.426 250.414 678.14 244.707 Q 683.855 239 683.847 227.068 L 683.808 183.895 Z " fill="rgb(54,73,153)"/><path d=" M 765.136 207.751 C 764.927 205.228 763.563 202.944 761.44 201.565 C 759.197 200.018 756.12 199.245 752.16 199.245 C 747.683 199.245 744.35 200.15 742.161 201.936 C 740.045 203.588 738.832 206.142 738.89 208.826 C 738.792 211.146 740.22 213.258 742.409 214.031 C 745.272 215.174 748.263 215.966 751.317 216.389 Q 756.692 217.224 762.824 218.067 C 766.812 218.592 770.695 219.726 774.338 221.431 C 777.862 223.054 780.922 225.535 783.239 228.646 C 785.559 231.793 786.765 236.201 786.765 241.923 C 786.842 249.556 783.364 256.79 777.354 261.496 C 774.07 264.036 770.341 265.943 766.358 267.117 C 761.695 268.487 756.85 269.139 751.99 269.051 C 747.154 269.119 742.336 268.441 737.707 267.04 C 733.767 265.855 730.07 263.978 726.788 261.496 C 723.85 259.249 721.44 256.385 719.728 253.105 C 718.025 249.768 717.104 246.087 717.037 242.341 L 737.197 242.341 C 737.271 245.072 738.689 247.59 740.986 249.069 C 743.383 250.747 746.948 251.582 751.642 251.582 Q 759.7 251.582 763.149 248.906 C 765.375 247.252 766.661 244.62 766.598 241.846 C 766.706 239.537 765.26 237.44 763.064 236.719 C 760.194 235.641 757.206 234.906 754.163 234.531 L 742.711 232.945 C 738.736 232.422 734.859 231.32 731.204 229.674 C 727.638 228.077 724.564 225.554 722.303 222.367 Q 718.738 217.487 718.738 208.734 C 718.69 204.996 719.482 201.296 721.058 197.907 C 722.624 194.603 724.891 191.679 727.701 189.339 C 730.781 186.812 734.317 184.899 738.117 183.702 C 742.544 182.308 747.164 181.63 751.805 181.691 C 756.42 181.624 761.016 182.302 765.415 183.702 C 769.171 184.899 772.674 186.782 775.746 189.254 C 778.514 191.497 780.776 194.301 782.381 197.482 C 783.96 200.675 784.823 204.175 784.909 207.736 L 765.136 207.751 Z " fill="rgb(54,73,153)"/></g></svg>