<?xml version="1.0" encoding="UTF-8" standalone="no"?><!-- Generator: Gravit.io --><svg xmlns="http://www.w3.org/2000/svg" xmlns:xlink="http://www.w3.org/1999/xlink" style="isolation:isolate" viewBox="160.493 17.445 493.37 493.374" width="493.37pt" height="493.374pt"><path d=" M 652.6 239.058 L 652.6 238.918 C 649.794 211.346 642.321 184.452 630.5 159.385 C 630.177 158.667 629.887 157.91 629.536 157.192 C 629.437 157.031 629.353 156.862 629.285 156.686 C 589.321 74.27 504.891 17.445 407.176 17.445 C 270.943 17.445 160.513 127.89 160.493 264.132 C 160.493 340.026 194.813 407.884 248.703 453.127 L 248.703 263.515 C 248.703 177.234 318.644 107.293 404.954 107.293 C 487.432 107.293 554.996 171.242 560.761 252.27 L 444.783 252.27 C 434.959 235.251 414.928 226.953 395.947 232.039 C 376.966 237.124 363.767 254.324 363.767 273.975 C 363.767 293.626 376.966 310.826 395.947 315.911 C 414.928 320.997 434.959 312.699 444.783 295.68 L 557.855 295.68 C 543.033 366.537 480.211 419.766 404.968 419.766 C 386.586 419.787 368.345 416.55 351.093 410.203 L 351.093 504.317 C 351.883 504.495 352.674 504.698 353.474 504.881 C 356.304 505.508 359.157 506.081 362.02 506.621 C 363.587 506.905 365.134 507.19 366.681 507.445 C 369.574 507.927 372.466 508.313 375.392 508.713 C 376.939 508.886 378.486 509.103 380.053 509.287 C 383.152 509.643 386.266 509.894 389.413 510.106 C 390.797 510.202 392.166 510.328 393.535 510.4 C 398.07 510.67 402.601 510.819 407.176 510.819 C 543.423 510.819 653.863 400.36 653.863 264.132 C 653.864 255.758 653.443 247.389 652.6 239.058 L 652.6 239.058 Z " fill="rgb(54,73,153)"/></svg>