<?xml version="1.0" encoding="UTF-8" standalone="no"?><!-- Generator: Gravit.io --><svg xmlns="http://www.w3.org/2000/svg" xmlns:xlink="http://www.w3.org/1999/xlink" style="isolation:isolate" viewBox="0 151.771 792 86.206" width="792pt" height="86.206pt"><g><path d=" M 342.151 217.185 L 342.151 181.711 L 342.925 181.711 L 366.564 208.908 L 366.564 181.711 L 370.06 181.711 L 370.06 217.185 L 369.286 217.185 L 345.81 190.321 L 345.81 217.185 L 342.151 217.185 Z " fill="rgb(196,196,195)"/><path d=" M 390.543 190.274 C 394.378 190.18 398.058 191.786 400.599 194.66 C 405.512 200.106 405.424 208.41 400.397 213.751 C 397.792 216.383 394.243 217.865 390.539 217.865 C 386.835 217.865 383.285 216.383 380.68 213.751 C 375.663 208.414 375.578 200.12 380.487 194.683 C 383.024 191.802 386.705 190.188 390.543 190.274 Z  M 390.543 193.577 C 387.804 193.544 385.178 194.667 383.31 196.671 C 381.325 198.667 380.233 201.383 380.286 204.198 C 380.275 206.056 380.749 207.885 381.663 209.504 C 382.53 211.09 383.821 212.405 385.391 213.302 C 388.596 215.087 392.497 215.087 395.702 213.302 C 397.272 212.405 398.563 211.09 399.431 209.504 C 400.34 207.884 400.815 206.056 400.807 204.198 C 400.858 201.38 399.76 198.664 397.767 196.671 C 395.9 194.672 393.278 193.55 390.543 193.577 Z " fill="rgb(196,196,195)"/><path d=" M 436.637 180.822 L 436.637 217.177 L 433.311 217.177 L 433.311 212.675 C 432.019 214.293 430.394 215.612 428.546 216.543 C 423.391 219.015 417.234 217.915 413.253 213.813 C 410.662 211.205 409.241 207.657 409.316 203.981 C 409.262 200.345 410.699 196.846 413.292 194.297 C 415.787 191.685 419.256 190.228 422.868 190.274 C 424.901 190.246 426.909 190.719 428.716 191.651 C 430.549 192.647 432.122 194.059 433.311 195.774 L 433.311 180.822 L 436.637 180.822 Z  M 423.147 193.523 C 419.404 193.494 415.947 195.52 414.143 198.798 C 412.256 202.079 412.256 206.115 414.143 209.396 C 415.036 211.03 416.357 212.391 417.964 213.333 C 419.516 214.262 421.292 214.749 423.1 214.741 C 424.942 214.742 426.753 214.262 428.352 213.348 C 429.953 212.468 431.277 211.158 432.174 209.566 C 433.077 207.923 433.538 206.073 433.512 204.198 C 433.584 201.371 432.507 198.635 430.526 196.617 C 428.608 194.598 425.931 193.476 423.147 193.523 L 423.147 193.523 Z " fill="rgb(196,196,195)"/><path d=" M 466.348 208.483 L 469.194 209.976 C 468.396 211.632 467.309 213.133 465.984 214.408 C 464.783 215.518 463.381 216.39 461.854 216.976 C 460.193 217.588 458.433 217.887 456.663 217.858 Q 450.251 217.858 446.608 213.65 C 444.267 211.035 442.978 207.645 442.987 204.136 C 442.959 200.9 444.052 197.753 446.082 195.233 C 448.534 191.986 452.411 190.134 456.478 190.267 C 460.665 190.127 464.66 192.023 467.199 195.356 C 469.157 197.939 470.177 201.112 470.092 204.352 L 446.476 204.352 C 446.433 207.135 447.483 209.823 449.4 211.84 C 451.201 213.757 453.732 214.82 456.362 214.764 C 457.682 214.762 458.991 214.526 460.229 214.068 C 461.409 213.655 462.502 213.029 463.455 212.219 C 464.603 211.127 465.578 209.868 466.348 208.483 L 466.348 208.483 Z  M 466.348 201.413 C 466.006 199.851 465.336 198.38 464.383 197.097 C 463.462 195.975 462.291 195.085 460.964 194.498 C 459.574 193.849 458.058 193.516 456.524 193.523 C 454.074 193.477 451.699 194.365 449.879 196.006 C 448.356 197.482 447.283 199.359 446.785 201.421 L 466.348 201.413 Z " fill="rgb(196,196,195)"/><path d=" M 489.553 193.817 L 487.38 196.06 C 485.577 194.312 483.806 193.43 482.081 193.43 C 481.036 193.412 480.025 193.803 479.266 194.521 C 478.526 195.153 478.099 196.077 478.098 197.05 C 478.115 197.953 478.458 198.818 479.064 199.487 C 480.235 200.65 481.609 201.588 483.118 202.256 Q 486.892 204.213 488.246 206.023 C 489.121 207.219 489.588 208.664 489.577 210.146 C 489.615 212.209 488.79 214.194 487.302 215.623 C 485.799 217.115 483.75 217.926 481.632 217.866 C 480.13 217.867 478.646 217.529 477.293 216.876 C 475.957 216.247 474.786 215.314 473.874 214.153 L 475.994 211.739 Q 478.585 214.656 481.486 214.656 C 482.763 214.685 484.001 214.219 484.943 213.356 C 485.852 212.586 486.374 211.453 486.366 210.262 C 486.379 209.314 486.043 208.395 485.423 207.678 C 484.796 206.905 483.381 206.008 481.168 204.878 C 478.801 203.656 477.192 202.457 476.334 201.266 C 475.485 200.078 475.037 198.65 475.058 197.19 C 475.005 195.32 475.747 193.516 477.1 192.224 C 478.479 190.895 480.337 190.181 482.251 190.243 Q 485.91 190.274 489.553 193.817 Z " fill="rgb(196,196,195)"/><path d=" M 507.948 190.947 L 511.398 190.947 L 511.398 194.815 C 512.252 193.484 513.358 192.333 514.654 191.427 C 515.707 190.706 516.951 190.316 518.228 190.305 C 519.284 190.342 520.312 190.651 521.214 191.203 L 519.458 194.049 C 518.897 193.783 518.29 193.628 517.671 193.593 C 516.45 193.631 515.289 194.125 514.414 194.977 C 513.224 196.157 512.395 197.652 512.024 199.286 Q 511.398 201.529 511.398 208.351 L 511.398 217.185 L 507.948 217.185 L 507.948 190.947 Z " fill="rgb(196,196,195)"/><path d=" M 546.175 208.483 L 549.022 209.976 C 548.213 211.632 547.119 213.133 545.788 214.408 C 544.587 215.518 543.185 216.39 541.658 216.976 C 539.997 217.588 538.237 217.887 536.467 217.858 Q 530.055 217.858 526.412 213.65 C 524.081 211.033 522.801 207.647 522.815 204.144 C 522.789 200.908 523.882 197.763 525.909 195.24 C 528.358 192.007 532.219 190.157 536.274 190.274 C 540.461 190.136 544.456 192.032 546.995 195.364 C 548.955 197.943 549.976 201.114 549.888 204.352 L 526.28 204.352 C 526.237 207.135 527.287 209.823 529.204 211.84 C 531.005 213.757 533.536 214.82 536.166 214.764 C 537.486 214.761 538.795 214.525 540.033 214.068 C 541.212 213.653 542.305 213.027 543.259 212.219 C 544.415 211.129 545.398 209.869 546.175 208.483 L 546.175 208.483 Z  M 546.175 201.413 C 545.833 199.851 545.163 198.38 544.21 197.097 C 543.287 195.977 542.117 195.087 540.791 194.498 C 539.392 193.845 537.865 193.512 536.32 193.523 C 533.873 193.475 531.499 194.363 529.684 196.006 C 528.16 197.482 527.087 199.359 526.589 201.421 L 546.175 201.413 Z " fill="rgb(196,196,195)"/><path d=" M 557.352 180.141 C 558.835 180.219 559.998 181.445 559.998 182.93 C 559.998 184.415 558.835 185.64 557.352 185.718 C 555.83 185.697 554.603 184.464 554.591 182.941 C 554.578 182.196 554.875 181.479 555.411 180.961 C 555.918 180.432 556.62 180.136 557.352 180.141 Z  M 555.682 190.97 L 559.054 190.97 L 559.054 217.185 L 555.682 217.185 L 555.682 190.97 Z " fill="rgb(196,196,195)"/><path d=" M 566.047 190.947 L 569.427 190.947 L 569.427 195.48 C 570.38 194.031 571.61 192.785 573.047 191.814 C 574.672 190.803 576.548 190.267 578.462 190.267 C 579.709 190.268 580.943 190.531 582.082 191.04 C 583.153 191.483 584.111 192.163 584.882 193.028 C 585.732 194.083 586.373 195.291 586.769 196.586 C 587.747 194.687 589.196 193.071 590.977 191.891 C 592.59 190.847 594.471 190.291 596.392 190.29 C 598.093 190.256 599.764 190.736 601.188 191.667 C 602.596 192.603 603.677 193.955 604.282 195.534 Q 605.295 197.994 605.295 202.914 L 605.295 217.185 L 601.845 217.185 L 601.845 202.859 Q 601.845 198.652 601.242 197.066 C 600.849 196.019 600.131 195.127 599.192 194.521 C 598.16 193.843 596.946 193.495 595.711 193.523 C 594.1 193.513 592.527 194.02 591.225 194.97 C 589.872 195.935 588.838 197.281 588.254 198.837 C 587.636 200.446 587.319 203.13 587.319 206.889 L 587.319 217.185 L 583.923 217.185 L 583.923 203.757 Q 583.923 199 583.327 197.306 C 582.954 196.197 582.229 195.241 581.262 194.583 C 580.246 193.875 579.034 193.504 577.796 193.523 C 576.226 193.526 574.696 194.018 573.418 194.931 C 572.06 195.872 571.011 197.193 570.402 198.729 Q 569.427 201.119 569.427 206.039 L 569.427 217.185 L 566.047 217.185 L 566.047 190.947 Z " fill="rgb(196,196,195)"/><path d=" M 638.541 190.947 L 638.541 217.185 L 635.215 217.185 L 635.215 212.675 C 633.924 214.293 632.298 215.612 630.45 216.543 C 625.298 219.016 619.142 217.916 615.165 213.813 C 612.572 211.206 611.148 207.658 611.22 203.981 C 611.166 200.345 612.603 196.846 615.196 194.297 C 617.691 191.685 621.16 190.228 624.772 190.274 C 626.805 190.243 628.815 190.716 630.62 191.651 C 632.456 192.643 634.031 194.056 635.215 195.774 L 635.215 190.947 L 638.541 190.947 Z  M 625.051 193.523 C 621.31 193.492 617.854 195.518 616.055 198.798 C 614.173 202.08 614.173 206.114 616.055 209.396 C 616.95 211.028 618.271 212.389 619.876 213.333 C 621.43 214.263 623.209 214.75 625.02 214.741 C 626.862 214.742 628.673 214.262 630.272 213.348 C 631.871 212.467 633.191 211.157 634.086 209.566 C 634.989 207.923 635.45 206.073 635.424 204.198 C 635.494 201.37 634.414 198.634 632.43 196.617 C 630.513 194.597 627.836 193.474 625.051 193.523 Z " fill="rgb(196,196,195)"/><path d=" M 668.762 190.947 L 672.104 190.947 L 672.104 211.832 Q 672.104 217.355 671.145 219.916 C 670.308 222.264 668.663 224.238 666.504 225.485 C 664.103 226.842 661.378 227.519 658.622 227.442 C 656.558 227.47 654.504 227.145 652.549 226.483 C 650.929 225.946 649.44 225.074 648.179 223.922 C 646.865 222.557 645.816 220.96 645.085 219.212 L 648.751 219.212 C 649.641 220.847 650.984 222.19 652.619 223.079 C 654.442 223.969 656.455 224.399 658.482 224.332 C 660.52 224.412 662.545 223.976 664.369 223.064 C 665.797 222.349 666.975 221.219 667.749 219.823 Q 668.755 217.873 668.762 213.542 L 668.762 212.196 C 667.528 213.777 665.938 215.044 664.121 215.893 C 660.069 217.779 655.356 217.592 651.467 215.39 C 649.405 214.258 647.695 212.58 646.524 210.541 C 644.179 206.328 644.231 201.191 646.66 197.026 C 649.09 192.862 653.537 190.29 658.359 190.259 C 660.257 190.244 662.135 190.659 663.851 191.473 C 665.752 192.451 667.426 193.819 668.762 195.488 L 668.762 190.947 Z  M 658.799 193.523 C 656.933 193.513 655.096 193.99 653.47 194.908 C 651.85 195.817 650.511 197.155 649.602 198.775 C 648.68 200.385 648.2 202.211 648.21 204.066 C 648.127 206.747 649.177 209.339 651.103 211.206 C 655.394 214.955 661.795 214.955 666.086 211.206 C 668.015 209.256 669.044 206.59 668.925 203.85 C 668.955 202.002 668.504 200.179 667.618 198.559 C 666.756 197.011 665.478 195.735 663.928 194.877 C 662.366 193.984 660.598 193.518 658.799 193.523 L 658.799 193.523 Z " fill="rgb(196,196,195)"/><path d=" M 680.543 180.141 C 681.284 180.141 681.995 180.437 682.518 180.962 C 683.04 181.488 683.332 182.2 683.328 182.941 C 683.346 183.672 683.067 184.378 682.554 184.898 C 682.036 185.43 681.324 185.726 680.582 185.718 C 679.059 185.697 677.833 184.464 677.82 182.941 C 677.808 182.196 678.105 181.479 678.64 180.961 C 679.138 180.442 679.824 180.146 680.543 180.141 Z  M 678.865 190.97 L 682.245 190.97 L 682.245 217.185 L 678.865 217.185 L 678.865 190.97 Z " fill="rgb(196,196,195)"/><path d=" M 689.261 190.947 L 692.641 190.947 L 692.641 195.65 C 693.827 193.998 695.354 192.621 697.12 191.612 C 698.765 190.721 700.609 190.261 702.48 190.274 C 704.325 190.243 706.138 190.763 707.686 191.767 C 709.184 192.745 710.356 194.148 711.051 195.797 Q 712.126 198.327 712.134 203.687 L 712.134 217.185 L 708.769 217.185 L 708.769 204.669 C 708.842 202.646 708.718 200.62 708.398 198.621 C 708.125 197.09 707.326 195.703 706.139 194.699 C 704.885 193.779 703.354 193.315 701.799 193.384 C 699.784 193.372 697.832 194.092 696.307 195.41 C 694.734 196.7 693.614 198.459 693.113 200.431 C 692.708 202.785 692.547 205.175 692.633 207.562 L 692.633 217.185 L 689.253 217.185 L 689.261 190.947 Z " fill="rgb(196,196,195)"/><path d=" M 741.473 208.483 L 744.32 209.976 C 743.515 211.634 742.42 213.135 741.087 214.408 C 739.885 215.518 738.483 216.39 736.956 216.976 C 735.295 217.588 733.535 217.887 731.766 217.858 Q 725.353 217.858 721.71 213.65 C 719.37 211.035 718.08 207.645 718.09 204.136 C 718.064 200.9 719.157 197.755 721.184 195.233 C 723.641 191.988 727.52 190.136 731.588 190.267 C 735.775 190.127 739.77 192.023 742.309 195.356 C 744.265 197.939 745.28 201.113 745.186 204.352 L 721.609 204.352 C 721.566 207.135 722.616 209.823 724.533 211.84 C 726.335 213.757 728.865 214.82 731.495 214.764 C 732.815 214.762 734.124 214.526 735.362 214.068 C 736.556 213.653 737.663 213.021 738.627 212.204 C 739.757 211.113 740.717 209.859 741.473 208.483 Z  M 741.473 201.413 C 741.131 199.851 740.462 198.38 739.509 197.097 C 738.586 195.977 737.415 195.087 736.09 194.498 C 734.705 193.851 733.194 193.518 731.665 193.523 C 729.215 193.477 726.84 194.365 725.021 196.006 C 723.497 197.482 722.424 199.359 721.926 201.421 L 741.473 201.413 Z " fill="rgb(196,196,195)"/><path d=" M 777.674 180.822 L 777.674 217.177 L 774.348 217.177 L 774.348 212.675 C 773.057 214.293 771.431 215.612 769.583 216.543 C 764.429 219.015 758.271 217.915 754.291 213.813 C 751.699 211.205 750.278 207.657 750.353 203.981 C 750.299 200.345 751.736 196.846 754.329 194.297 C 756.824 191.685 760.293 190.228 763.905 190.274 C 765.938 190.246 767.947 190.719 769.753 191.651 C 771.586 192.647 773.16 194.059 774.348 195.774 L 774.348 180.822 L 777.674 180.822 Z  M 764.153 193.523 C 760.41 193.494 756.954 195.52 755.149 198.798 C 753.262 202.079 753.262 206.115 755.149 209.396 C 756.043 211.03 757.363 212.391 758.97 213.333 C 760.535 214.273 762.328 214.762 764.153 214.748 C 765.995 214.75 767.806 214.27 769.405 213.356 C 771.006 212.476 772.329 211.166 773.226 209.574 C 774.13 207.93 774.591 206.08 774.564 204.205 C 774.635 201.374 773.551 198.635 771.563 196.617 C 769.638 194.59 766.948 193.467 764.153 193.523 L 764.153 193.523 Z " fill="rgb(196,196,195)"/><path d=" M 789.037 211.886 C 789.827 211.884 790.586 212.199 791.142 212.76 C 791.699 213.321 792.008 214.082 792 214.872 C 792.012 215.665 791.699 216.429 791.133 216.984 C 790.58 217.549 789.823 217.867 789.033 217.867 C 788.243 217.867 787.486 217.549 786.933 216.984 C 786.37 216.426 786.057 215.664 786.067 214.872 C 786.058 214.081 786.368 213.319 786.927 212.757 C 787.485 212.196 788.245 211.882 789.037 211.886 L 789.037 211.886 Z " fill="rgb(196,196,195)"/><path d=" M 85.985 190.522 L 85.985 190.522 C 85.494 185.695 84.186 180.987 82.117 176.598 C 82.055 176.475 82.009 176.343 81.947 176.212 L 81.901 176.127 C 74.251 160.284 57.739 150.682 40.186 151.87 C 22.633 153.057 7.565 164.796 2.119 181.524 C -3.327 198.253 1.943 216.613 15.432 227.906 L 15.432 194.792 C 15.423 180.096 27.053 168.032 41.739 167.503 C 56.425 166.973 68.893 178.169 69.942 192.827 L 49.684 192.827 C 47.968 189.856 44.471 188.407 41.157 189.295 C 37.843 190.183 35.538 193.186 35.538 196.617 C 35.538 200.048 37.843 203.051 41.157 203.939 C 44.471 204.827 47.968 203.379 49.684 200.407 L 69.431 200.407 C 67.799 208.162 62.878 214.824 55.945 218.663 C 49.013 222.503 40.755 223.14 33.316 220.411 L 33.316 236.84 L 33.734 236.941 L 35.226 237.25 L 36.039 237.389 C 36.541 237.474 37.052 237.544 37.586 237.614 L 38.359 237.707 C 38.901 237.776 39.45 237.815 39.999 237.854 L 40.718 237.908 C 41.492 237.954 42.265 237.977 43.101 237.977 C 54.528 237.977 65.487 233.438 73.567 225.358 C 81.647 217.278 86.186 206.319 86.186 194.892 C 86.201 193.415 86.124 191.976 85.985 190.522 Z " fill="rgb(54,73,153)"/><path d=" M 97.874 219.049 L 97.874 170.65 L 105.988 170.65 L 105.988 219.049 L 97.874 219.049 Z " fill="rgb(174,174,174)"/><path d=" M 138.994 214.161 L 138.855 214.161 C 137.887 215.81 136.499 217.174 134.833 218.113 C 133.039 219.099 131.016 219.593 128.969 219.544 C 127.039 219.55 125.123 219.218 123.307 218.562 C 121.495 217.905 119.844 216.868 118.465 215.522 C 116.969 214.027 115.818 212.224 115.092 210.239 C 114.194 207.761 113.764 205.138 113.824 202.504 L 113.824 185.378 L 121.946 185.378 L 121.946 202.496 Q 121.946 207.346 124.266 209.659 C 125.925 211.245 128.161 212.084 130.454 211.979 C 132.741 212.062 134.961 211.197 136.588 209.589 Q 138.979 207.199 138.979 202.496 L 138.979 185.378 L 147.093 185.378 L 147.093 217.912 C 147.162 220.485 146.72 223.045 145.793 225.446 C 145.015 227.396 143.791 229.137 142.22 230.528 C 140.66 231.862 138.836 232.851 136.867 233.429 C 134.739 234.053 132.532 234.363 130.315 234.349 C 128.443 234.357 126.577 234.128 124.761 233.669 C 123.06 233.238 121.443 232.521 119.981 231.549 C 118.538 230.586 117.289 229.361 116.299 227.937 C 115.227 226.372 114.475 224.611 114.087 222.754 L 122.201 222.754 Q 124.173 227.326 130.315 227.326 Q 134.484 227.326 136.728 225.176 Q 138.971 223.025 138.979 218.113 L 138.994 214.161 Z " fill="rgb(174,174,174)"/><path d=" M 176.641 219.049 L 176.641 199.835 Q 176.641 195.751 174.7 193.902 C 171.889 191.468 167.718 191.468 164.907 193.902 C 163.638 195.109 162.996 197.097 162.996 199.866 L 162.996 219.049 L 154.882 219.049 L 154.882 199.835 C 154.832 197.504 155.202 195.182 155.973 192.982 C 156.609 191.196 157.622 189.568 158.943 188.209 C 160.202 186.954 161.728 186 163.406 185.417 C 165.204 184.79 167.096 184.478 168.999 184.496 C 171.354 184.457 173.684 184.988 175.79 186.043 C 177.754 187.051 179.413 188.565 180.594 190.429 L 180.733 190.429 C 181.875 188.551 183.517 187.027 185.475 186.028 C 187.601 184.965 189.952 184.435 192.328 184.481 C 194.238 184.466 196.135 184.783 197.936 185.417 C 199.614 186.002 201.14 186.956 202.4 188.209 C 203.721 189.568 204.734 191.196 205.37 192.982 C 206.136 195.183 206.5 197.505 206.445 199.835 L 206.445 219.049 L 198.323 219.049 L 198.323 199.835 Q 198.323 195.681 196.42 193.871 C 195.086 192.642 193.321 191.992 191.508 192.061 C 189.712 191.998 187.967 192.662 186.666 193.902 Q 184.786 195.751 184.786 199.835 L 184.786 219.049 L 176.641 219.049 Z " fill="rgb(174,174,174)"/><path d=" M 213.128 202.496 C 213.087 199.958 213.539 197.436 214.459 195.07 C 215.284 192.95 216.538 191.023 218.141 189.408 C 219.757 187.822 221.685 186.589 223.803 185.788 C 226.142 184.9 228.627 184.462 231.128 184.496 C 233.622 184.46 236.1 184.898 238.43 185.788 C 240.576 186.625 242.534 187.879 244.193 189.478 C 245.822 191.07 247.099 192.986 247.944 195.101 C 248.846 197.356 249.298 199.766 249.275 202.194 C 249.335 204.872 248.835 207.534 247.805 210.007 C 246.916 212.086 245.617 213.965 243.984 215.53 C 242.447 216.989 240.625 218.114 238.631 218.833 C 236.71 219.545 234.678 219.915 232.629 219.923 C 230.302 219.975 227.998 219.46 225.915 218.423 C 224.06 217.496 222.492 216.082 221.382 214.331 L 221.242 214.331 L 221.242 233.429 L 213.128 233.429 L 213.128 202.496 Z  M 231.128 192.061 C 228.436 191.937 225.82 192.967 223.934 194.892 C 222.1 196.883 221.131 199.521 221.242 202.225 C 221.131 204.93 222.1 207.568 223.934 209.558 C 225.82 211.483 228.436 212.513 231.128 212.389 C 233.83 212.508 236.457 211.48 238.36 209.558 C 240.216 207.578 241.199 204.936 241.091 202.225 C 241.199 199.514 240.216 196.872 238.36 194.892 C 236.457 192.97 233.83 191.942 231.128 192.061 L 231.128 192.061 Z " fill="rgb(174,174,174)"/><path d=" M 279.759 185.378 L 287.873 185.378 L 287.873 202.906 C 287.925 205.425 287.522 207.933 286.682 210.308 C 285.957 212.306 284.804 214.12 283.302 215.623 C 281.814 217.08 280.02 218.188 278.05 218.864 C 275.858 219.615 273.552 219.984 271.235 219.954 C 268.918 219.985 266.612 219.63 264.413 218.902 C 262.441 218.245 260.645 217.147 259.16 215.692 C 257.651 214.182 256.499 212.353 255.788 210.339 C 254.948 207.953 254.542 205.435 254.589 202.906 L 254.589 185.378 L 262.711 185.378 L 262.711 202.906 Q 262.711 207.74 265.031 210.069 C 268.585 213.142 273.855 213.142 277.408 210.069 Q 279.728 207.748 279.728 202.906 L 279.759 185.378 Z " fill="rgb(174,174,174)"/><path d=" M 312.765 195.07 C 312.685 194.042 312.13 193.109 311.265 192.548 C 310.142 191.852 308.832 191.517 307.513 191.589 C 306.077 191.482 304.648 191.867 303.46 192.68 C 302.6 193.352 302.107 194.389 302.129 195.48 C 302.087 196.423 302.669 197.282 303.56 197.592 C 304.721 198.057 305.934 198.379 307.173 198.551 C 308.627 198.775 310.182 199.007 311.814 199.232 C 313.42 199.451 314.985 199.91 316.455 200.593 C 317.886 201.255 319.128 202.266 320.067 203.532 Q 321.506 205.435 321.506 208.947 C 321.538 212.045 320.126 214.982 317.685 216.891 C 316.352 217.936 314.836 218.723 313.214 219.212 C 311.32 219.761 309.354 220.022 307.382 219.985 C 305.422 220.022 303.469 219.762 301.588 219.212 C 299.99 218.727 298.49 217.965 297.156 216.961 C 295.964 216.046 294.987 214.882 294.294 213.55 C 293.597 212.197 293.224 210.701 293.203 209.179 L 301.379 209.179 C 301.411 210.289 301.991 211.311 302.926 211.91 C 304.258 212.663 305.788 212.994 307.312 212.861 Q 310.584 212.861 311.953 211.77 C 312.857 211.1 313.379 210.033 313.353 208.908 C 313.396 207.97 312.807 207.119 311.914 206.828 C 310.75 206.389 309.537 206.09 308.302 205.938 L 303.661 205.296 C 302.059 205.075 300.496 204.627 299.02 203.966 C 297.57 203.316 296.32 202.291 295.4 200.995 C 294.441 199.68 293.969 197.839 293.969 195.472 C 293.953 193.953 294.279 192.449 294.92 191.071 C 295.557 189.733 296.475 188.548 297.612 187.598 C 298.859 186.558 300.296 185.77 301.843 185.277 C 303.643 184.715 305.52 184.441 307.405 184.465 C 309.277 184.44 311.142 184.714 312.928 185.277 C 314.451 185.766 315.871 186.529 317.12 187.528 C 318.243 188.44 319.16 189.579 319.812 190.87 C 320.456 192.177 320.797 193.613 320.81 195.07 L 312.765 195.07 Z " fill="rgb(174,174,174)"/></g></svg>