<?xml version="1.0" encoding="UTF-8" standalone="no"?><!-- Generator: Gravit.io --><svg xmlns="http://www.w3.org/2000/svg" xmlns:xlink="http://www.w3.org/1999/xlink" style="isolation:isolate" viewBox="343.665 256.441 792 142.973" width="792pt" height="142.973pt"><g><path d=" M 1135.665 384.799 C 1135.665 392.868 1125.128 399.414 1112.13 399.414 L 367.192 399.414 C 354.203 399.445 343.665 392.899 343.665 384.799 L 343.665 271.071 C 343.665 262.986 354.203 256.441 367.192 256.441 L 1112.13 256.441 C 1125.128 256.441 1135.665 262.986 1135.665 271.071 L 1135.665 384.799 Z " fill="rgb(54,73,153)"/><path d=" M 698.823 345.992 L 698.823 316.338 L 699.466 316.338 L 719.202 339.068 L 719.202 316.338 L 722.126 316.338 L 722.126 345.992 L 721.461 345.992 L 701.887 323.556 L 701.887 345.992 L 698.823 345.992 Z " fill="rgb(255,255,255)"/><path d=" M 739.263 323.494 C 742.468 323.412 745.545 324.755 747.665 327.161 C 751.773 331.714 751.699 338.658 747.495 343.122 C 745.315 345.321 742.348 346.558 739.251 346.558 C 736.155 346.558 733.187 345.321 731.008 343.122 C 726.814 338.662 726.74 331.732 730.838 327.184 C 732.958 324.764 736.046 323.411 739.263 323.494 L 739.263 323.494 Z  M 739.263 326.256 C 736.97 326.232 734.773 327.175 733.213 328.855 C 731.553 330.523 730.64 332.793 730.683 335.145 C 730.676 336.698 731.073 338.226 731.836 339.578 C 732.556 340.902 733.627 342.002 734.93 342.758 C 737.611 344.244 740.868 344.244 743.549 342.758 C 744.853 342.003 745.924 340.903 746.644 339.578 C 747.41 338.227 747.807 336.699 747.796 335.145 C 747.84 332.791 746.924 330.52 745.259 328.855 C 743.709 327.187 741.532 326.245 739.255 326.256 L 739.263 326.256 Z " fill="rgb(255,255,255)"/><path d=" M 777.807 315.587 L 777.807 345.992 L 775.029 345.992 L 775.029 342.248 C 773.946 343.598 772.588 344.703 771.045 345.489 C 766.729 347.546 761.581 346.611 758.264 343.168 C 756.096 340.99 754.907 338.024 754.968 334.952 C 754.92 331.91 756.122 328.981 758.295 326.852 C 760.376 324.664 763.276 323.444 766.295 323.486 C 767.994 323.46 769.673 323.853 771.184 324.631 C 772.727 325.462 774.052 326.644 775.053 328.082 L 775.053 315.587 L 777.807 315.587 Z  M 766.527 326.217 C 763.4 326.194 760.513 327.887 759.007 330.627 C 757.434 333.371 757.434 336.742 759.007 339.486 C 759.756 340.849 760.86 341.985 762.202 342.774 C 763.502 343.551 764.989 343.958 766.504 343.95 C 768.042 343.95 769.554 343.55 770.89 342.789 C 772.229 342.052 773.336 340.957 774.086 339.625 C 774.839 338.251 775.223 336.705 775.2 335.138 C 775.264 332.763 774.359 330.464 772.693 328.77 C 771.085 327.095 768.849 326.169 766.527 326.217 L 766.527 326.217 Z " fill="rgb(255,255,255)"/><path d=" M 802.665 338.712 L 805.048 339.965 C 804.371 341.351 803.454 342.606 802.34 343.671 C 801.336 344.601 800.165 345.33 798.889 345.822 C 797.5 346.33 796.028 346.579 794.549 346.557 Q 789.187 346.557 786.162 343.037 C 782.304 338.694 782.105 332.212 785.69 327.641 C 787.749 324.93 790.993 323.385 794.394 323.494 C 797.891 323.38 801.228 324.962 803.353 327.741 C 804.989 329.896 805.843 332.542 805.775 335.246 L 786.031 335.246 C 786.002 337.573 786.878 339.82 788.476 341.513 C 789.989 343.111 792.108 343.996 794.309 343.95 C 795.423 343.954 796.529 343.757 797.574 343.369 C 798.558 343.021 799.47 342.497 800.266 341.822 C 801.213 340.908 802.021 339.86 802.665 338.712 L 802.665 338.712 Z  M 802.665 332.801 C 802.382 331.496 801.823 330.266 801.025 329.196 C 800.254 328.257 799.274 327.512 798.162 327.022 C 796.995 326.474 795.722 326.192 794.433 326.194 C 792.385 326.152 790.398 326.894 788.878 328.268 C 787.616 329.509 786.729 331.08 786.317 332.801 L 802.665 332.801 Z " fill="rgb(255,255,255)"/><path d=" M 822.06 326.457 L 820.242 328.322 C 818.734 326.859 817.264 326.124 815.817 326.124 C 814.956 326.116 814.124 326.44 813.496 327.03 C 812.874 327.559 812.515 328.333 812.513 329.149 C 812.527 329.904 812.816 330.628 813.326 331.184 C 814.305 332.157 815.454 332.943 816.714 333.505 C 818.349 334.238 819.81 335.308 821.001 336.646 C 821.736 337.645 822.127 338.856 822.115 340.097 C 822.146 341.822 821.456 343.482 820.211 344.677 C 818.953 345.923 817.239 346.599 815.469 346.549 C 814.215 346.551 812.977 346.268 811.848 345.721 C 810.723 345.186 809.741 344.391 808.986 343.4 L 810.726 341.474 Q 812.885 343.911 815.314 343.911 C 816.381 343.934 817.415 343.543 818.2 342.82 C 818.956 342.185 819.392 341.247 819.391 340.259 C 819.402 339.472 819.127 338.708 818.618 338.109 C 817.572 337.142 816.372 336.357 815.067 335.788 C 813.509 335.094 812.126 334.06 811.02 332.762 C 810.308 331.772 809.934 330.578 809.953 329.358 C 809.913 327.795 810.534 326.287 811.662 325.204 C 812.818 324.096 814.372 323.502 815.972 323.556 C 817.983 323.494 820.01 324.453 822.06 326.457 Z " fill="rgb(255,255,255)"/><path d=" M 837.425 324.059 L 840.303 324.059 L 840.303 327.262 C 841.021 326.159 841.946 325.205 843.027 324.453 C 843.907 323.851 844.947 323.525 846.013 323.517 C 846.898 323.557 847.759 323.824 848.512 324.291 L 847.042 326.674 C 846.574 326.448 846.067 326.317 845.549 326.287 C 844.528 326.319 843.556 326.733 842.826 327.447 C 841.83 328.431 841.138 329.68 840.83 331.045 C 840.481 332.298 840.303 334.82 840.303 338.627 L 840.303 346.046 L 837.425 346.046 L 837.425 324.059 Z " fill="rgb(255,255,255)"/><path d=" M 869.378 338.712 L 871.753 339.965 C 871.079 341.35 870.165 342.605 869.053 343.671 C 868.049 344.601 866.878 345.33 865.602 345.822 C 864.212 346.33 862.741 346.579 861.262 346.557 Q 855.885 346.557 852.868 343.037 C 850.91 340.851 849.833 338.017 849.843 335.083 C 849.814 332.382 850.718 329.753 852.404 327.641 C 854.459 324.931 857.7 323.385 861.1 323.494 C 864.597 323.38 867.934 324.962 870.059 327.741 C 871.697 329.894 872.552 332.542 872.48 335.246 L 852.744 335.246 C 852.711 337.574 853.588 339.822 855.189 341.513 C 856.699 343.112 858.815 343.997 861.014 343.95 C 862.126 343.953 863.229 343.756 864.272 343.369 C 865.257 343.025 866.17 342.5 866.964 341.822 C 867.917 340.909 868.73 339.861 869.378 338.712 Z  M 869.378 332.801 C 869.089 331.496 868.528 330.268 867.73 329.196 C 866.963 328.26 865.988 327.515 864.883 327.022 C 863.713 326.475 862.437 326.192 861.146 326.194 C 859.1 326.153 857.116 326.895 855.599 328.268 C 854.334 329.508 853.444 331.079 853.03 332.801 L 869.378 332.801 Z " fill="rgb(255,255,255)"/><path d=" M 878.724 315.022 C 879.342 315.013 879.937 315.263 880.364 315.711 C 880.812 316.149 881.064 316.749 881.062 317.376 C 881.061 318.002 880.806 318.602 880.356 319.038 C 879.451 319.938 877.989 319.938 877.083 319.038 C 876.646 318.602 876.401 318.011 876.401 317.394 C 876.401 316.777 876.646 316.185 877.083 315.75 C 877.504 315.288 878.099 315.024 878.724 315.022 Z  M 877.316 324.059 L 880.139 324.059 L 880.139 345.992 L 877.316 345.992 L 877.316 324.059 Z " fill="rgb(255,255,255)"/><path d=" M 885.988 324.059 L 888.812 324.059 L 888.812 327.85 C 889.605 326.628 890.634 325.576 891.837 324.755 C 893.19 323.918 894.749 323.473 896.34 323.471 C 897.38 323.467 898.41 323.678 899.365 324.09 C 900.251 324.468 901.043 325.036 901.686 325.753 C 902.385 326.64 902.91 327.65 903.233 328.732 C 904.05 327.143 905.262 325.792 906.753 324.809 C 908.109 323.934 909.689 323.469 911.303 323.471 C 912.723 323.444 914.119 323.842 915.31 324.616 C 916.483 325.393 917.386 326.515 917.894 327.827 C 918.557 329.819 918.846 331.918 918.745 334.016 L 918.745 345.992 L 915.945 345.992 L 915.945 334.016 C 916.03 332.383 915.86 330.746 915.442 329.165 C 915.11 328.291 914.509 327.545 913.724 327.037 C 912.855 326.498 911.845 326.229 910.823 326.264 C 909.476 326.257 908.162 326.68 907.071 327.471 C 905.943 328.276 905.081 329.399 904.595 330.697 Q 903.821 332.716 903.821 337.435 L 903.821 346.023 L 900.997 346.023 L 900.997 334.759 C 901.091 332.939 900.924 331.115 900.502 329.343 C 900.192 328.418 899.589 327.62 898.785 327.068 C 897.912 326.486 896.878 326.193 895.829 326.233 C 894.516 326.236 893.236 326.649 892.17 327.416 C 891.033 328.2 890.155 329.304 889.648 330.589 C 889.011 332.56 888.736 334.631 888.835 336.7 L 888.835 345.984 L 886.012 345.984 L 885.988 324.059 Z " fill="rgb(255,255,255)"/><path d=" M 946.589 324.059 L 946.589 345.992 L 943.796 345.992 L 943.796 342.248 C 942.717 343.599 941.361 344.705 939.82 345.489 C 935.504 347.546 930.356 346.611 927.039 343.168 C 924.868 340.992 923.678 338.025 923.743 334.952 C 923.695 331.912 924.895 328.984 927.062 326.852 C 929.145 324.662 932.048 323.442 935.07 323.486 C 936.769 323.461 938.448 323.854 939.959 324.631 C 941.502 325.461 942.827 326.643 943.827 328.082 L 943.827 324.059 L 946.589 324.059 Z  M 935.286 326.217 C 932.16 326.194 929.272 327.887 927.766 330.627 C 926.99 331.973 926.582 333.499 926.582 335.053 C 926.588 336.609 926.998 338.137 927.774 339.486 C 928.521 340.851 929.626 341.988 930.969 342.774 C 932.273 343.555 933.766 343.962 935.286 343.95 C 936.827 343.951 938.342 343.551 939.681 342.789 C 941.019 342.054 942.123 340.958 942.868 339.625 C 943.628 338.253 944.015 336.706 943.99 335.138 C 944.052 332.762 943.144 330.463 941.475 328.77 C 939.862 327.089 937.616 326.163 935.286 326.217 L 935.286 326.217 Z " fill="rgb(255,255,255)"/><path d=" M 971.85 324.059 L 974.673 324.059 L 974.673 341.536 Q 974.673 346.178 973.9 348.29 C 973.196 350.244 971.826 351.887 970.031 352.932 C 968.023 354.064 965.744 354.629 963.44 354.564 C 961.719 354.595 960.006 354.333 958.372 353.791 C 957.013 353.342 955.763 352.612 954.705 351.648 C 953.605 350.507 952.726 349.171 952.113 347.71 L 955.169 347.71 C 955.913 349.075 957.037 350.195 958.403 350.936 C 959.928 351.681 961.612 352.043 963.308 351.988 C 964.997 352.039 966.672 351.669 968.182 350.913 C 969.381 350.32 970.369 349.375 971.014 348.205 C 971.587 347.122 971.865 345.373 971.865 342.952 L 971.865 341.822 C 970.837 343.143 969.511 344.204 967.997 344.917 C 964.611 346.496 960.671 346.34 957.421 344.499 C 955.703 343.554 954.279 342.154 953.305 340.453 C 951.341 336.941 951.374 332.654 953.392 329.173 C 955.41 325.692 959.115 323.534 963.138 323.494 C 964.742 323.475 966.33 323.821 967.78 324.508 C 969.371 325.324 970.771 326.469 971.888 327.865 L 971.85 324.059 Z  M 963.525 326.217 C 961.964 326.204 960.427 326.602 959.069 327.37 C 957.719 328.123 956.602 329.234 955.842 330.581 C 955.067 331.926 954.664 333.453 954.674 335.006 C 954.606 337.247 955.485 339.412 957.096 340.971 C 960.684 344.103 966.033 344.103 969.621 340.971 C 971.229 339.337 972.086 337.11 971.989 334.82 C 972.014 333.277 971.641 331.752 970.906 330.395 C 970.183 329.095 969.111 328.023 967.811 327.3 C 966.501 326.572 965.024 326.198 963.525 326.217 L 963.525 326.217 Z " fill="rgb(255,255,255)"/><path d=" M 981.706 315.022 C 982.327 315.015 982.923 315.264 983.354 315.711 C 983.791 316.146 984.037 316.738 984.037 317.355 C 984.037 317.972 983.791 318.564 983.354 318.999 C 982.922 319.444 982.326 319.69 981.706 319.68 C 981.093 319.688 980.505 319.442 980.081 318.999 C 979.644 318.564 979.399 317.972 979.399 317.355 C 979.399 316.738 979.644 316.146 980.081 315.711 C 980.504 315.266 981.092 315.017 981.706 315.022 L 981.706 315.022 Z  M 980.306 324.059 L 983.13 324.059 L 983.13 345.992 L 980.306 345.992 L 980.306 324.059 Z " fill="rgb(255,255,255)"/><path d=" M 988.986 324.059 L 991.81 324.059 L 991.81 327.989 C 992.801 326.606 994.078 325.453 995.555 324.608 C 996.93 323.866 998.471 323.482 1000.034 323.494 C 1001.58 323.468 1003.099 323.901 1004.398 324.74 C 1005.66 325.551 1006.65 326.724 1007.237 328.105 Q 1008.142 330.233 1008.142 334.704 L 1008.142 345.992 L 1005.318 345.992 L 1005.318 335.524 C 1005.379 333.832 1005.273 332.137 1005.001 330.465 C 1004.776 329.188 1004.11 328.03 1003.121 327.192 C 1002.076 326.422 1000.797 326.034 999.5 326.094 C 997.798 326.072 996.146 326.675 994.858 327.788 C 993.541 328.863 992.605 330.333 992.189 331.981 C 991.85 333.95 991.715 335.949 991.787 337.946 L 991.787 345.992 L 988.963 345.992 L 988.986 324.059 Z " fill="rgb(255,255,255)"/><path d=" M 1032.636 338.712 L 1035.011 339.965 C 1034.337 341.35 1033.423 342.605 1032.311 343.671 C 1031.305 344.6 1030.132 345.33 1028.853 345.822 C 1027.466 346.33 1025.998 346.579 1024.521 346.557 Q 1019.144 346.557 1016.126 343.037 C 1014.169 340.851 1013.091 338.017 1013.101 335.083 C 1013.072 332.382 1013.977 329.753 1015.662 327.641 C 1017.717 324.931 1020.959 323.385 1024.358 323.494 C 1027.855 323.38 1031.192 324.962 1033.317 327.741 C 1034.956 329.894 1035.81 332.542 1035.739 335.246 L 1016.003 335.246 C 1015.971 337.572 1016.844 339.819 1018.44 341.513 C 1019.95 343.107 1022.062 343.992 1024.258 343.95 C 1025.372 343.954 1026.478 343.757 1027.522 343.369 C 1028.506 343.021 1029.419 342.497 1030.215 341.822 C 1031.17 340.91 1031.986 339.862 1032.636 338.712 L 1032.636 338.712 Z  M 1032.636 332.801 C 1032.348 331.496 1031.786 330.268 1030.988 329.196 C 1030.217 328.258 1029.237 327.513 1028.126 327.022 C 1026.956 326.475 1025.68 326.192 1024.389 326.194 C 1022.343 326.153 1020.359 326.895 1018.842 328.268 C 1017.578 329.508 1016.688 331.079 1016.273 332.801 L 1032.636 332.801 Z " fill="rgb(255,255,255)"/><path d=" M 1062.894 315.587 L 1062.894 345.992 L 1060.109 345.992 L 1060.109 342.248 C 1059.03 343.599 1057.674 344.705 1056.133 345.489 C 1051.817 347.546 1046.669 346.611 1043.352 343.168 C 1041.181 340.992 1039.991 338.025 1040.056 334.952 C 1040.008 331.912 1041.207 328.984 1043.375 326.852 C 1045.458 324.662 1048.36 323.442 1051.382 323.486 C 1053.081 323.461 1054.761 323.854 1056.272 324.631 C 1057.815 325.461 1059.14 326.643 1060.14 328.082 L 1060.14 315.587 L 1062.894 315.587 Z  M 1051.614 326.217 C 1048.488 326.194 1045.601 327.887 1044.094 330.627 C 1043.318 331.973 1042.91 333.499 1042.911 335.053 C 1042.916 336.609 1043.326 338.137 1044.102 339.486 C 1044.849 340.851 1045.954 341.988 1047.297 342.774 C 1048.594 343.551 1050.079 343.958 1051.591 343.95 C 1053.132 343.951 1054.646 343.551 1055.986 342.789 C 1057.324 342.054 1058.428 340.958 1059.173 339.625 C 1059.933 338.253 1060.32 336.706 1060.295 335.138 C 1060.359 332.763 1059.454 330.464 1057.788 328.77 C 1056.178 327.093 1053.939 326.167 1051.614 326.217 L 1051.614 326.217 Z " fill="rgb(255,255,255)"/><path d=" M 1072.387 341.559 C 1073.05 341.555 1073.686 341.817 1074.153 342.287 C 1074.621 342.757 1074.879 343.395 1074.871 344.058 C 1074.88 344.721 1074.617 345.358 1074.143 345.822 C 1073.681 346.291 1073.05 346.555 1072.391 346.555 C 1071.732 346.555 1071.101 346.291 1070.639 345.822 C 1069.669 344.84 1069.669 343.261 1070.639 342.279 C 1071.098 341.809 1071.73 341.548 1072.387 341.559 Z " fill="rgb(255,255,255)"/><path d=" M 484.681 323.68 L 484.681 323.68 C 484.269 319.657 483.178 315.733 481.455 312.075 C 481.408 311.966 481.37 311.858 481.316 311.758 L 481.277 311.68 C 474.859 298.466 461.06 290.474 446.405 291.481 C 431.75 292.488 419.174 302.294 414.624 316.261 C 410.074 330.229 414.462 345.56 425.712 355.005 L 425.712 327.269 C 425.67 314.963 435.397 304.842 447.695 304.398 C 459.993 303.953 470.427 313.345 471.273 325.622 L 454.338 325.622 C 452.903 323.14 449.98 321.931 447.211 322.674 C 444.442 323.417 442.516 325.927 442.516 328.794 C 442.516 331.661 444.442 334.17 447.211 334.913 C 449.98 335.656 452.903 334.448 454.338 331.966 L 470.848 331.966 C 469.485 338.445 465.374 344.012 459.583 347.221 C 453.791 350.43 446.891 350.964 440.675 348.685 L 440.675 362.433 L 441.023 362.51 C 441.433 362.603 441.851 362.688 442.269 362.765 L 442.95 362.889 L 444.226 363.067 L 444.907 363.152 C 445.356 363.206 445.812 363.245 446.269 363.276 L 446.872 363.276 C 447.537 363.314 448.195 363.338 448.86 363.338 C 459.043 363.33 468.747 359.015 475.572 351.458 C 482.397 343.902 485.706 333.81 484.681 323.68 Z " fill="rgb(255,255,255)"/><path d=" M 494.615 347.563 L 494.615 307.085 L 501.4 307.085 L 501.4 347.563 L 494.615 347.563 Z " fill="rgb(255,255,255)"/><path d=" M 528.996 343.462 L 528.88 343.462 C 528.073 344.841 526.914 345.981 525.523 346.766 C 524.02 347.586 522.329 347.999 520.618 347.965 C 519.003 347.967 517.401 347.687 515.883 347.137 C 514.369 346.589 512.99 345.723 511.837 344.6 C 510.585 343.35 509.621 341.843 509.013 340.182 C 508.265 338.11 507.908 335.917 507.961 333.714 L 507.961 319.401 L 514.746 319.401 L 514.746 333.737 Q 514.746 337.776 516.68 339.718 C 518.071 341.049 519.948 341.751 521.871 341.66 C 523.782 341.727 525.637 341.005 527 339.664 C 528.331 338.333 528.996 336.352 528.996 333.737 L 528.996 319.401 L 535.781 319.401 L 535.781 346.596 C 535.837 348.746 535.469 350.886 534.698 352.893 C 534.044 354.523 533.019 355.977 531.704 357.141 C 530.403 358.259 528.879 359.087 527.232 359.57 C 525.454 360.093 523.609 360.354 521.755 360.344 C 520.19 360.349 518.63 360.157 517.113 359.771 C 515.695 359.412 514.348 358.816 513.129 358.007 C 511.916 357.203 510.866 356.176 510.034 354.982 C 509.135 353.675 508.504 352.202 508.177 350.65 L 514.962 350.65 Q 516.626 354.472 521.747 354.472 C 524.068 354.472 525.848 353.876 527.109 352.677 C 528.37 351.477 528.989 349.512 528.989 346.774 L 528.996 343.462 Z " fill="rgb(255,255,255)"/><path d=" M 560.469 347.563 L 560.469 331.486 C 560.469 329.165 559.928 327.556 558.844 326.527 C 557.745 325.49 556.278 324.933 554.767 324.979 C 553.247 324.931 551.77 325.488 550.659 326.527 Q 549.065 328.074 549.065 331.517 L 549.065 347.594 L 542.265 347.594 L 542.265 331.486 C 542.221 329.538 542.53 327.598 543.178 325.761 C 543.705 324.267 544.55 322.905 545.653 321.769 C 546.709 320.725 547.986 319.931 549.39 319.448 C 550.882 318.925 552.452 318.663 554.032 318.674 C 555.999 318.635 557.945 319.076 559.703 319.958 C 561.348 320.803 562.737 322.072 563.726 323.633 L 563.927 323.633 C 564.883 322.066 566.254 320.794 567.889 319.958 C 569.667 319.072 571.635 318.631 573.621 318.674 C 575.202 318.663 576.772 318.925 578.263 319.448 C 579.665 319.932 580.939 320.725 581.992 321.769 C 583.098 322.905 583.946 324.267 584.476 325.761 C 585.123 327.598 585.433 329.538 585.389 331.486 L 585.389 347.563 L 578.627 347.563 L 578.627 331.486 Q 578.627 328.012 577.033 326.496 C 575.922 325.457 574.445 324.9 572.925 324.948 C 571.423 324.898 569.964 325.456 568.879 326.496 C 567.796 327.548 567.254 329.204 567.254 331.486 L 567.254 347.563 L 560.469 347.563 Z " fill="rgb(255,255,255)"/><path d=" M 591.006 333.737 C 590.975 331.622 591.353 329.52 592.12 327.548 C 592.819 325.776 593.872 324.165 595.214 322.813 C 596.563 321.481 598.172 320.444 599.941 319.765 C 601.898 319.024 603.977 318.657 606.069 318.682 C 608.139 318.672 610.192 319.055 612.119 319.811 C 613.915 320.513 615.553 321.565 616.939 322.906 C 618.293 324.22 619.36 325.8 620.072 327.548 C 620.825 329.435 621.201 331.451 621.179 333.482 C 621.23 335.721 620.811 337.945 619.948 340.012 C 619.206 341.756 618.122 343.334 616.761 344.654 C 615.472 345.871 613.948 346.811 612.281 347.416 C 610.675 348.014 608.975 348.323 607.26 348.329 C 605.317 348.371 603.392 347.941 601.651 347.075 C 600.103 346.298 598.793 345.116 597.86 343.656 L 597.744 343.656 L 597.744 359.616 L 591.006 359.616 L 591.006 333.737 Z  M 606.015 324.987 C 603.765 324.884 601.579 325.745 600.003 327.355 C 597.001 330.888 597.001 336.076 600.003 339.609 C 601.579 341.219 603.765 342.08 606.015 341.977 C 608.275 342.077 610.473 341.217 612.065 339.609 C 615.097 336.087 615.097 330.877 612.065 327.355 C 610.473 325.747 608.275 324.887 606.015 324.987 L 606.015 324.987 Z " fill="rgb(255,255,255)"/><path d=" M 646.663 319.401 L 653.448 319.401 L 653.448 334.055 C 653.491 336.161 653.153 338.258 652.45 340.244 C 651.848 341.915 650.887 343.434 649.634 344.692 C 648.387 345.909 646.886 346.833 645.239 347.4 C 643.406 348.03 641.477 348.339 639.538 348.313 C 637.601 348.337 635.674 348.039 633.836 347.431 C 632.189 346.881 630.689 345.962 629.449 344.747 C 628.188 343.483 627.224 341.956 626.625 340.275 C 625.929 338.287 625.591 336.191 625.627 334.085 L 625.627 319.401 L 632.412 319.401 L 632.412 334.055 C 632.412 336.755 633.062 338.743 634.354 340.035 C 637.328 342.624 641.755 342.624 644.729 340.035 C 646.021 338.743 646.663 336.755 646.663 334.055 L 646.663 319.401 Z " fill="rgb(255,255,255)"/><path d=" M 674.26 327.494 C 674.192 326.635 673.733 325.856 673.014 325.382 C 672.072 324.811 670.979 324.542 669.881 324.608 C 668.679 324.516 667.481 324.835 666.484 325.513 C 665.771 326.071 665.359 326.929 665.37 327.834 C 665.339 328.622 665.826 329.337 666.569 329.598 C 667.542 329.98 668.558 330.24 669.594 330.372 C 670.809 330.565 672.109 330.751 673.501 330.944 C 674.841 331.127 676.145 331.51 677.37 332.082 C 678.566 332.635 679.606 333.478 680.395 334.534 C 681.269 335.867 681.689 337.446 681.594 339.037 C 681.62 341.629 680.439 344.085 678.399 345.683 C 677.284 346.547 676.016 347.193 674.662 347.586 C 673.082 348.065 671.438 348.297 669.788 348.274 C 668.147 348.299 666.513 348.066 664.945 347.586 C 663.604 347.192 662.348 346.555 661.239 345.706 C 660.241 344.943 659.423 343.972 658.841 342.859 C 658.265 341.726 657.953 340.478 657.928 339.207 L 664.775 339.207 C 664.786 340.145 665.264 341.016 666.051 341.528 C 667.144 342.171 668.406 342.47 669.672 342.387 C 671.498 342.387 672.766 342.077 673.579 341.474 C 674.336 340.912 674.771 340.018 674.747 339.076 C 674.786 338.295 674.298 337.586 673.556 337.343 C 672.582 336.964 671.566 336.704 670.531 336.569 C 669.316 336.391 668.008 336.213 666.624 336.027 C 665.288 335.841 663.985 335.466 662.755 334.913 C 661.546 334.369 660.505 333.511 659.738 332.43 C 658.857 331.049 658.437 329.423 658.539 327.788 C 658.516 326.518 658.781 325.259 659.312 324.105 C 659.846 322.985 660.613 321.993 661.564 321.196 C 662.611 320.344 663.811 319.698 665.099 319.293 C 666.6 318.815 668.167 318.583 669.741 318.604 C 671.316 318.578 672.884 318.81 674.383 319.293 C 675.658 319.698 676.846 320.335 677.888 321.173 C 678.828 321.934 679.595 322.886 680.139 323.966 C 680.675 325.048 680.968 326.233 680.998 327.44 L 674.26 327.494 Z " fill="rgb(255,255,255)"/></g></svg>