<?xml version="1.0" encoding="UTF-8" standalone="no"?><!-- Generator: Gravit.io --><svg xmlns="http://www.w3.org/2000/svg" xmlns:xlink="http://www.w3.org/1999/xlink" style="isolation:isolate" viewBox="0 99.436 792 319.135" width="792pt" height="319.135pt"><g><path d=" M 792 385.942 C 792 403.963 781.461 418.571 768.462 418.571 L 23.53 418.571 C 10.508 418.571 0 403.963 0 385.942 L 0 132.065 C 0 114.045 10.508 99.436 23.53 99.436 L 768.462 99.436 C 781.461 99.436 792 114.045 792 132.065 L 792 385.942 Z " fill="rgb(54,73,153)"/><path d=" M 255.625 250.264 L 255.625 250.264 C 254.714 241.279 252.283 232.514 248.437 224.343 C 248.337 224.111 248.228 223.879 248.112 223.639 C 248.089 223.584 248.064 223.529 248.035 223.477 C 233.775 193.946 202.997 176.046 170.278 178.255 C 137.558 180.464 109.466 202.338 99.304 233.517 C 89.143 264.697 98.952 298.924 124.087 319.987 L 124.087 258.234 C 124.093 230.847 145.776 208.378 173.146 207.396 C 200.515 206.415 223.752 227.273 225.72 254.589 L 187.945 254.589 C 184.744 249.045 178.219 246.342 172.035 247.999 C 165.851 249.656 161.552 255.26 161.552 261.662 C 161.552 268.063 165.851 273.667 172.035 275.324 C 178.219 276.981 184.744 274.278 187.945 268.734 L 224.784 268.734 C 221.738 283.194 212.558 295.617 199.63 302.776 C 186.702 309.934 171.301 311.121 157.428 306.029 L 157.428 336.685 L 158.202 336.863 C 159.13 337.064 160.067 337.265 160.995 337.428 L 162.543 337.698 C 163.487 337.853 164.431 337.985 165.375 338.116 L 166.922 338.31 C 167.928 338.41 168.949 338.495 169.971 338.565 C 170.42 338.565 170.868 338.642 171.317 338.666 C 172.795 338.751 174.265 338.797 175.758 338.797 C 220.105 338.763 256.039 302.805 256.043 258.458 C 256.042 255.722 255.902 252.987 255.625 250.264 L 255.625 250.264 Z " fill="rgb(255,255,255)"/><path d=" M 277.793 303.506 L 277.793 213.217 L 292.928 213.217 L 292.928 303.506 L 277.793 303.506 Z " fill="rgb(255,255,255)"/><path d=" M 354.473 294.345 L 354.217 294.345 C 352.415 297.428 349.824 299.976 346.712 301.727 C 343.365 303.56 339.594 304.48 335.779 304.396 C 332.18 304.408 328.608 303.787 325.225 302.562 C 321.845 301.344 318.766 299.416 316.195 296.906 C 313.405 294.118 311.258 290.753 309.904 287.048 C 308.23 282.426 307.43 277.533 307.544 272.618 L 307.544 240.662 L 322.679 240.662 L 322.679 272.579 Q 322.679 281.609 327.004 285.934 Q 331.33 290.26 338.58 290.275 Q 345.543 290.275 350.031 285.826 Q 354.519 281.377 354.48 272.602 L 354.48 240.662 L 369.607 240.662 L 369.607 301.317 Q 369.607 309.58 367.193 315.368 C 365.739 319.004 363.455 322.25 360.523 324.846 C 357.617 327.342 354.211 329.188 350.534 330.263 C 346.569 331.425 342.456 331.998 338.324 331.965 C 334.828 331.984 331.343 331.555 327.956 330.688 C 324.79 329.885 321.781 328.554 319.058 326.75 C 316.368 324.951 314.037 322.665 312.187 320.01 C 310.194 317.089 308.79 313.806 308.055 310.346 L 323.19 310.346 Q 326.865 318.858 338.324 318.858 Q 346.062 318.858 350.271 314.849 C 353.072 312.188 354.473 307.793 354.473 301.696 L 354.473 294.345 Z " fill="rgb(255,255,255)"/><path d=" M 424.668 303.506 L 424.668 267.643 Q 424.668 260.021 421.039 256.578 C 415.819 252.022 408.044 251.996 402.794 256.516 Q 399.227 259.897 399.234 267.643 L 399.234 303.506 L 384.1 303.506 L 384.1 267.643 C 384.003 263.297 384.692 258.969 386.135 254.868 C 387.316 251.535 389.203 248.497 391.667 245.962 C 394.015 243.62 396.861 241.838 399.993 240.747 C 403.345 239.581 406.873 238.999 410.423 239.029 C 414.809 238.945 419.151 239.927 423.074 241.892 C 426.741 243.777 429.837 246.609 432.042 250.094 L 432.297 250.094 C 434.431 246.599 437.489 243.761 441.133 241.892 C 445.1 239.918 449.486 238.936 453.916 239.029 C 457.463 238.999 460.988 239.58 464.338 240.747 C 467.472 241.838 470.32 243.62 472.671 245.962 C 475.133 248.499 477.02 251.537 478.204 254.868 C 479.643 258.97 480.332 263.297 480.239 267.643 L 480.239 303.506 L 465.104 303.506 L 465.104 267.643 Q 465.104 259.905 461.545 256.516 C 459.058 254.224 455.763 253.014 452.384 253.15 C 449.037 253.032 445.785 254.268 443.362 256.578 Q 439.802 260.013 439.802 267.643 L 439.802 303.506 L 424.668 303.506 Z " fill="rgb(255,255,255)"/><path d=" M 492.696 272.602 C 492.629 267.887 493.472 263.203 495.18 258.806 C 496.72 254.855 499.056 251.263 502.043 248.252 C 505.045 245.266 508.64 242.943 512.597 241.436 C 516.961 239.774 521.6 238.952 526.269 239.014 C 530.921 238.965 535.538 239.809 539.872 241.498 C 543.867 243.064 547.51 245.411 550.588 248.399 C 553.616 251.373 555.989 254.947 557.552 258.892 C 559.233 263.096 560.077 267.587 560.036 272.115 C 560.149 277.107 559.216 282.067 557.297 286.677 C 555.642 290.554 553.22 294.057 550.178 296.976 C 547.313 299.705 543.915 301.812 540.197 303.166 C 536.615 304.494 532.828 305.183 529.008 305.201 C 524.666 305.296 520.365 304.337 516.474 302.407 C 513.02 300.671 510.099 298.035 508.016 294.778 L 507.769 294.778 L 507.769 330.371 L 492.696 330.371 L 492.696 272.602 Z  M 526.269 253.15 Q 517.874 253.15 512.852 258.427 Q 507.831 263.704 507.831 272.092 Q 507.831 280.479 512.852 285.764 Q 517.874 291.049 526.269 291.041 Q 534.657 291.041 539.748 285.764 Q 544.839 280.487 544.832 272.092 Q 544.832 263.697 539.748 258.427 Q 534.665 253.158 526.269 253.15 L 526.269 253.15 Z " fill="rgb(255,255,255)"/><path d=" M 616.938 240.662 L 632.065 240.662 L 632.065 273.338 C 632.157 278.035 631.405 282.71 629.844 287.141 C 628.494 290.868 626.344 294.254 623.546 297.061 C 620.768 299.77 617.426 301.831 613.758 303.096 C 609.665 304.497 605.363 305.185 601.037 305.131 C 596.719 305.185 592.423 304.518 588.325 303.158 C 584.65 301.933 581.3 299.891 578.529 297.185 C 575.723 294.361 573.575 290.953 572.238 287.203 C 570.675 282.751 569.92 278.055 570.01 273.338 L 570.01 240.662 L 585.144 240.662 L 585.144 273.338 Q 585.144 282.383 589.47 286.693 Q 593.795 291.002 601.076 291.018 Q 608.334 291.018 612.682 286.693 Q 617.031 282.367 617.008 273.338 L 616.938 240.662 Z " fill="rgb(255,255,255)"/><path d=" M 678.482 258.745 C 678.333 256.823 677.298 255.082 675.681 254.032 Q 673.144 252.26 668.718 252.253 Q 663.634 252.253 661.158 254.288 C 659.554 255.537 658.633 257.47 658.674 259.503 C 658.599 261.26 659.683 262.86 661.344 263.441 C 663.508 264.312 665.772 264.909 668.083 265.221 Q 672.161 265.871 676.796 266.498 C 679.812 266.898 682.75 267.756 685.508 269.043 C 688.175 270.277 690.491 272.158 692.248 274.514 Q 694.917 278.065 694.917 284.572 C 694.976 290.347 692.345 295.821 687.798 299.382 C 685.309 301.308 682.483 302.754 679.465 303.646 C 675.952 304.702 672.301 305.224 668.633 305.193 C 664.964 305.234 661.311 304.712 657.8 303.646 C 654.804 302.757 651.99 301.343 649.49 299.467 C 647.266 297.763 645.444 295.592 644.151 293.107 C 642.86 290.584 642.164 287.8 642.116 284.967 L 657.367 284.967 C 657.418 287.032 658.487 288.938 660.222 290.058 Q 662.961 291.962 668.3 291.962 Q 674.405 291.962 677.012 289.927 C 678.7 288.679 679.673 286.686 679.62 284.588 C 679.705 282.844 678.611 281.258 676.95 280.719 C 674.778 279.902 672.515 279.349 670.211 279.071 C 667.495 278.684 664.594 278.297 661.499 277.864 C 658.489 277.463 655.555 276.626 652.786 275.38 C 650.087 274.168 647.761 272.259 646.047 269.848 Q 643.377 266.173 643.377 259.549 C 643.35 256.717 643.958 253.914 645.157 251.347 C 646.346 248.851 648.059 246.639 650.178 244.863 C 652.509 242.949 655.185 241.502 658.063 240.6 C 661.415 239.538 664.915 239.016 668.431 239.052 C 671.925 239.013 675.402 239.535 678.73 240.6 C 681.573 241.508 684.225 242.932 686.553 244.801 C 688.647 246.501 690.358 248.623 691.574 251.03 C 692.765 253.44 693.415 256.081 693.478 258.768 L 678.482 258.745 Z " fill="rgb(255,255,255)"/></g></svg>