<?xml version="1.0" encoding="UTF-8" standalone="no"?><!-- Generator: Gravit.io --><svg xmlns="http://www.w3.org/2000/svg" xmlns:xlink="http://www.w3.org/1999/xlink" style="isolation:isolate" viewBox="47.101 126.918 668.141 179.082" width="668.141pt" height="179.082pt"><g><path d=" M 225.7 207.329 L 225.7 207.271 C 224.681 197.26 221.969 187.496 217.678 178.395 C 217.56 178.133 217.456 177.859 217.325 177.598 C 217.291 177.539 217.26 177.478 217.234 177.415 C 201.306 144.546 167.011 124.646 130.57 127.126 C 94.129 129.607 62.847 153.971 51.52 188.696 C 40.193 223.42 51.092 261.544 79.061 285.035 L 79.061 216.206 C 79.085 185.695 103.243 160.671 133.734 159.573 C 164.225 158.475 190.121 181.697 192.339 212.127 L 150.233 212.127 C 146.667 205.951 139.398 202.94 132.509 204.785 C 125.621 206.631 120.831 212.874 120.831 220.005 C 120.831 227.136 125.621 233.379 132.509 235.225 C 139.398 237.07 146.667 234.059 150.233 227.883 L 191.275 227.883 C 187.886 244.002 177.658 257.851 163.249 265.831 C 148.84 273.811 131.674 275.133 116.213 269.455 L 116.213 303.618 L 117.075 303.82 C 118.1 304.048 119.138 304.257 120.175 304.473 C 120.743 304.577 121.305 304.682 121.866 304.773 C 122.917 304.943 123.974 305.086 125.032 305.23 L 126.722 305.439 C 127.845 305.569 128.974 305.661 130.123 305.739 C 130.619 305.772 131.121 305.817 131.617 305.843 C 133.262 305.941 134.881 306 136.565 306 C 160.324 306.003 183.111 296.564 199.908 279.761 C 216.705 262.958 226.136 240.168 226.124 216.409 C 226.133 213.377 225.992 210.347 225.7 207.329 L 225.7 207.329 Z " fill="rgb(54,73,153)"/><path d=" M 250.366 266.667 L 250.366 166.039 L 267.232 166.039 L 267.232 266.667 L 250.366 266.667 Z " fill="rgb(174,174,174)"/><path d=" M 335.825 256.466 L 335.545 256.466 C 333.533 259.902 330.648 262.746 327.183 264.709 C 323.45 266.752 319.246 267.779 314.991 267.686 C 310.984 267.693 307.008 266.997 303.242 265.63 C 299.477 264.268 296.045 262.118 293.177 259.324 C 290.069 256.215 287.674 252.467 286.16 248.339 Q 283.55 241.61 283.55 232.25 L 283.55 196.677 L 300.416 196.677 L 300.416 232.25 Q 300.416 242.315 305.233 247.132 Q 310.05 251.949 318.13 251.955 Q 325.924 251.955 330.884 246.995 Q 335.845 242.034 335.845 232.25 L 335.845 196.677 L 352.711 196.677 L 352.711 264.259 Q 352.711 273.475 350.015 279.924 C 348.381 283.978 345.819 287.593 342.535 290.478 C 339.305 293.25 335.523 295.304 331.439 296.503 C 327.022 297.801 322.44 298.445 317.837 298.415 C 313.941 298.434 310.059 297.959 306.284 296.999 C 302.753 296.102 299.399 294.617 296.362 292.606 C 293.365 290.6 290.768 288.053 288.706 285.094 C 286.493 281.835 284.94 278.174 284.137 274.317 L 301.003 274.317 Q 305.109 283.814 317.869 283.814 Q 326.505 283.814 331.191 279.35 Q 335.878 274.885 335.825 264.709 L 335.825 256.466 Z " fill="rgb(174,174,174)"/><path d=" M 414.06 266.667 L 414.06 226.702 Q 414.06 218.217 410.019 214.366 C 407.285 211.794 403.641 210.416 399.889 210.534 Q 393.656 210.534 389.681 214.287 Q 385.706 218.04 385.712 226.689 L 385.712 266.667 L 368.846 266.667 L 368.846 226.702 Q 368.846 218.478 371.118 212.453 C 372.437 208.741 374.541 205.357 377.286 202.532 C 379.902 199.921 383.075 197.935 386.567 196.723 C 390.302 195.424 394.232 194.778 398.186 194.81 C 403.076 194.718 407.916 195.813 412.291 198.002 C 416.377 200.102 419.828 203.257 422.284 207.14 L 422.564 207.14 C 424.942 203.244 428.351 200.082 432.414 198.002 C 436.834 195.803 441.721 194.708 446.656 194.81 C 450.612 194.778 454.544 195.425 458.281 196.723 C 461.772 197.938 464.944 199.923 467.562 202.532 C 470.303 205.361 472.406 208.744 473.731 212.453 C 475.331 217.029 476.099 221.855 475.996 226.702 L 475.996 266.667 L 459.129 266.667 L 459.129 226.702 Q 459.129 218.053 455.161 214.3 Q 451.192 210.547 444.959 210.534 Q 438.863 210.534 434.894 214.359 Q 430.926 218.184 430.926 226.695 L 430.926 266.667 L 414.06 266.667 Z " fill="rgb(174,174,174)"/><path d=" M 489.885 232.224 C 489.815 226.967 490.757 221.746 492.659 216.846 C 494.387 212.451 496.992 208.453 500.316 205.097 C 503.664 201.782 507.665 199.199 512.064 197.513 C 516.932 195.67 522.102 194.758 527.305 194.823 C 532.489 194.77 537.636 195.707 542.468 197.584 C 546.926 199.322 550.996 201.924 554.445 205.241 C 557.832 208.55 560.487 212.532 562.239 216.931 C 564.11 221.619 565.05 226.627 565.006 231.676 Q 565.006 241.022 561.951 247.902 C 560.102 252.218 557.402 256.118 554.014 259.37 C 550.827 262.4 547.05 264.739 542.918 266.243 C 538.925 267.722 534.703 268.489 530.445 268.508 C 525.608 268.61 520.818 267.542 516.483 265.395 C 512.617 263.463 509.346 260.519 507.019 256.877 L 506.738 256.877 L 506.738 296.562 L 489.885 296.562 L 489.885 232.224 Z  M 527.305 210.534 Q 517.945 210.534 512.352 216.409 Q 506.758 222.283 506.751 231.649 Q 506.751 240.996 512.352 246.884 Q 517.952 252.771 527.305 252.758 Q 536.652 252.758 542.318 246.884 Q 547.983 241.009 547.99 231.649 Q 547.99 222.29 542.318 216.409 Q 536.646 210.528 527.305 210.534 Z " fill="rgb(174,174,174)"/><path d=" M 628.352 196.651 L 645.218 196.651 L 645.218 233.079 Q 645.218 241.864 642.738 248.457 C 641.238 252.603 638.845 256.369 635.728 259.488 C 632.63 262.509 628.904 264.81 624.814 266.224 C 620.253 267.782 615.458 268.549 610.637 268.489 C 605.817 268.56 601.018 267.823 596.441 266.309 C 592.346 264.944 588.614 262.668 585.527 259.651 C 582.397 256.516 580.001 252.726 578.511 248.555 C 576.773 243.593 575.933 238.361 576.03 233.105 L 576.03 196.651 L 592.896 196.651 L 592.896 233.079 Q 592.896 243.144 597.714 247.961 Q 602.531 252.778 610.611 252.778 Q 618.692 252.778 623.509 247.961 Q 628.326 243.144 628.326 233.079 L 628.352 196.651 Z " fill="rgb(174,174,174)"/><path d=" M 696.959 216.774 C 696.783 214.644 695.631 212.716 693.839 211.552 Q 691.006 209.594 686.045 209.594 Q 680.38 209.594 677.612 211.859 C 675.826 213.253 674.802 215.409 674.851 217.675 C 674.767 219.635 675.976 221.419 677.828 222.068 C 680.242 223.026 682.765 223.683 685.34 224.026 Q 689.864 224.744 695.046 225.442 C 698.406 225.891 701.678 226.846 704.752 228.275 C 707.724 229.652 710.306 231.747 712.265 234.371 Q 715.241 238.346 715.241 245.565 C 715.311 252.005 712.376 258.11 707.304 262.079 C 704.533 264.227 701.385 265.838 698.023 266.831 C 694.091 268.003 690.004 268.575 685.902 268.528 C 681.824 268.579 677.763 268.006 673.859 266.831 C 670.533 265.832 667.412 264.247 664.643 262.151 C 662.163 260.253 660.131 257.833 658.69 255.062 C 657.254 252.252 656.479 249.151 656.425 245.996 L 673.428 245.996 C 673.491 248.296 674.686 250.416 676.62 251.662 Q 679.668 253.789 685.621 253.789 Q 692.429 253.789 695.327 251.525 C 697.211 250.132 698.298 247.908 698.238 245.565 C 698.328 243.618 697.108 241.85 695.255 241.244 C 692.836 240.331 690.316 239.713 687.749 239.404 Q 683.18 238.751 678.036 238.059 C 674.684 237.611 671.415 236.679 668.331 235.292 C 665.323 233.942 662.73 231.815 660.818 229.13 Q 657.841 225.018 657.841 217.649 C 657.768 211.328 660.553 205.312 665.419 201.279 C 668.018 199.146 671.003 197.532 674.212 196.527 C 677.948 195.353 681.848 194.78 685.765 194.83 C 689.658 194.777 693.534 195.35 697.246 196.527 C 700.414 197.537 703.368 199.123 705.96 201.207 C 708.295 203.101 710.203 205.468 711.56 208.152 C 712.891 210.842 713.616 213.792 713.681 216.794 L 696.959 216.774 Z " fill="rgb(174,174,174)"/></g></svg>